<?xml version="1.0" standalone="no"?>
<!DOCTYPE svg PUBLIC "-//W3C//DTD SVG 20010904//EN"
 "http://www.w3.org/TR/2001/REC-SVG-20010904/DTD/svg10.dtd">
<svg version="1.0" xmlns="http://www.w3.org/2000/svg"
 width="198.000000pt" height="327.000000pt" viewBox="0 0 198.000000 327.000000"
 preserveAspectRatio="xMidYMid meet">
<metadata>
Created by potrace 1.14, written by Peter Selinger 2001-2017
</metadata>
<g transform="translate(0.000000,327.000000) scale(0.100000,-0.100000)"
fill="#869292" stroke="none">
<path d="M924 3180 c-82 -33 -84 -156 -3 -204 l29 -17 0 -466 c0 -257 -2 -464
-4 -462 -3 2 -39 138 -81 302 l-76 297 26 23 c54 46 40 148 -25 182 -97 50
-204 -51 -154 -146 20 -40 39 -56 78 -67 25 -7 31 -15 41 -57 7 -28 42 -165
79 -306 36 -141 66 -265 66 -275 0 -18 -10 -19 -238 -17 l-238 2 -202 -202
-202 -203 0 -415 0 -415 152 -110 c84 -60 195 -140 248 -177 52 -37 102 -74
110 -80 9 -7 38 -28 65 -47 47 -32 121 -86 155 -113 8 -7 40 -29 70 -49 30
-21 83 -58 116 -82 l61 -45 69 52 c70 53 528 390 567 417 18 12 93 68 132 98
6 4 49 36 98 71 l87 63 0 416 0 415 -134 136 c-73 75 -163 166 -198 204 l-65
67 -257 0 c-202 0 -257 3 -254 13 3 6 40 152 83 324 l78 311 33 7 c98 18 114
163 23 211 -39 20 -71 18 -110 -9 -61 -41 -68 -122 -15 -175 23 -24 23 -25 8
-81 -8 -31 -43 -166 -78 -301 l-63 -245 0 470 -1 470 30 17 c17 10 38 34 46
55 39 93 -56 182 -152 143z m521 -1270 c-3 -5 -27 -24 -53 -42 -26 -17 -126
-89 -223 -160 -97 -70 -180 -128 -184 -128 -5 0 -347 246 -445 320 -25 19 -19
19 443 19 306 1 466 -2 462 -9z m-912 -87 c45 -31 86 -60 92 -65 5 -4 -67 -8
-160 -8 l-170 0 67 65 c36 36 71 65 78 65 7 0 49 -25 93 -57z m1076 -8 l64
-65 -168 0 -169 0 40 29 c99 73 140 100 154 100 9 1 44 -28 79 -64z m-919
-470 c0 -6 -50 -60 -110 -120 l-110 -110 -117 117 -117 117 114 116 115 115
112 -112 c62 -62 113 -117 113 -123z m1038 3 c-4 -9 -202 -213 -216 -222 -11
-6 -232 204 -232 221 0 4 51 58 112 120 l113 113 112 -112 c62 -62 112 -116
111 -120z m-695 59 c27 -50 64 -122 83 -158 l35 -66 -75 -299 c-94 -369 -87
-345 -96 -339 -4 3 -11 22 -15 42 -4 21 -35 155 -70 298 -35 143 -65 269 -67
281 -3 19 140 333 152 334 3 0 27 -42 53 -93z"/>
<path d="M736 1834 c21 -15 41 -30 42 -35 2 -5 8 -9 13 -9 5 0 50 -30 100 -67
87 -63 93 -66 115 -52 61 37 253 175 253 182 1 4 -126 7 -280 7 l-282 0 39
-26z"/>
<path d="M396 1421 c-63 -63 -68 -72 -55 -87 22 -28 122 -124 129 -124 3 0 36
30 72 68 76 77 79 62 -23 159 l-55 53 -68 -69z"/>
<path d="M1437 1423 c-37 -37 -67 -70 -67 -74 0 -7 94 -106 123 -128 16 -12
24 -7 82 50 36 35 65 69 65 74 0 6 -30 41 -68 78 l-68 67 -67 -67z"/>
<path d="M935 1270 l-47 -93 47 -194 c26 -106 48 -193 50 -193 1 0 24 87 51
194 l48 193 -43 84 c-24 46 -47 88 -52 93 -4 5 -29 -33 -54 -84z"/>
</g>
</svg>
